<svg width="32" height="32" viewBox="0 0 32 32" fill="none" xmlns="http://www.w3.org/2000/svg">
  <defs>
    <linearGradient id="gradient" x1="0%" y1="0%" x2="100%" y2="100%">
      <stop offset="0%" style="stop-color:#3B82F6"/>
      <stop offset="100%" style="stop-color:#8B5CF6"/>
    </linearGradient>
  </defs>
  <!-- Background Circle -->
  <circle cx="16" cy="16" r="16" fill="url(#gradient)"/>
  <!-- Brain/AI Symbol -->
  <path d="M16 6C20.4183 6 24 9.58172 24 14C24 18.4183 20.4183 22 16 22C11.5817 22 8 18.4183 8 14C8 9.58172 11.5817 6 16 6Z" fill="white" fill-opacity="0.9"/>
  <path d="M16 10C18.2091 10 20 11.7909 20 14C20 16.2091 18.2091 18 16 18C13.7909 18 12 16.2091 12 14C12 11.7909 13.7909 10 16 10Z" fill="url(#gradient)"/>
  <!-- Care Symbol (Heart) -->
  <path d="M16 25C16 25 10 21 10 17C10 15.3431 11.3431 14 13 14C14.1046 14 15.1045 14.5 15.6 15.3C15.8 15.7 16.2 15.7 16.4 15.3C16.8955 14.5 17.8954 14 19 14C20.6569 14 22 15.3431 22 17C22 21 16 25 16 25Z" fill="white" fill-opacity="0.9"/>
</svg> 